<svg xmlns="http://www.w3.org/2000/svg" xmlns:xlink="http://www.w3.org/1999/xlink" width="500" zoomAndPan="magnify" viewBox="0 0 375 149.999998" height="200" preserveAspectRatio="xMidYMid meet" version="1.0"><defs><g/><clipPath id="id1"><path d="M 291.113281 63.167969 L 360.113281 63.167969 L 360.113281 99.917969 L 291.113281 99.917969 Z M 291.113281 63.167969 " clip-rule="nonzero"/></clipPath></defs><path fill="#bdc2c5" d="M 354.613281 88.308594 L 350.589844 98.902344 L 300.632812 98.902344 L 296.609375 88.308594 C 297.910156 87.855469 298.847656 86.621094 298.847656 85.164062 C 298.847656 87.007812 300.347656 88.496094 302.191406 88.496094 C 304.042969 88.496094 305.539062 87.007812 305.539062 85.164062 C 305.539062 87.007812 307.035156 88.496094 308.882812 88.496094 C 310.734375 88.496094 312.230469 87.007812 312.230469 85.164062 C 312.230469 87.007812 313.726562 88.496094 315.574219 88.496094 C 317.421875 88.496094 318.921875 87.007812 318.921875 85.164062 C 318.921875 87.007812 320.417969 88.496094 322.265625 88.496094 C 324.113281 88.496094 325.609375 87.007812 325.609375 85.164062 C 325.609375 87.007812 327.109375 88.496094 328.957031 88.496094 C 330.804688 88.496094 332.300781 87.007812 332.300781 85.164062 C 332.300781 87.007812 333.800781 88.496094 335.648438 88.496094 C 337.496094 88.496094 338.992188 87.007812 338.992188 85.164062 C 338.992188 87.007812 340.492188 88.496094 342.339844 88.496094 C 344.1875 88.496094 345.683594 87.007812 345.683594 85.164062 C 345.683594 87.007812 347.183594 88.496094 349.03125 88.496094 C 350.878906 88.496094 352.375 87.007812 352.375 85.164062 C 352.375 86.621094 353.308594 87.855469 354.613281 88.308594 " fill-opacity="1" fill-rule="nonzero"/><path fill="#a1aab0" d="M 352.375 85.164062 C 352.375 87.003906 350.878906 88.496094 349.03125 88.496094 C 347.183594 88.496094 345.683594 87.003906 345.683594 85.164062 C 345.683594 85.546875 345.617188 85.910156 345.5 86.25 C 345.832031 87.210938 346.59375 87.972656 347.554688 88.308594 L 343.535156 98.902344 L 350.589844 98.902344 L 354.613281 88.308594 C 353.308594 87.855469 352.375 86.621094 352.375 85.164062 " fill-opacity="1" fill-rule="nonzero"/><path fill="#f8ba5d" d="M 359.066406 85.164062 C 359.066406 87.007812 357.570312 88.496094 355.722656 88.496094 C 355.332031 88.496094 354.957031 88.429688 354.613281 88.308594 C 353.308594 87.855469 352.375 86.621094 352.375 85.164062 C 352.375 87.007812 350.878906 88.496094 349.03125 88.496094 C 347.183594 88.496094 345.683594 87.007812 345.683594 85.164062 C 345.683594 87.007812 344.1875 88.496094 342.339844 88.496094 C 340.492188 88.496094 338.992188 87.007812 338.992188 85.164062 C 338.992188 87.007812 337.496094 88.496094 335.648438 88.496094 C 333.800781 88.496094 332.300781 87.007812 332.300781 85.164062 C 332.300781 87.007812 330.804688 88.496094 328.957031 88.496094 C 327.109375 88.496094 325.609375 87.007812 325.609375 85.164062 C 325.609375 87.007812 324.113281 88.496094 322.265625 88.496094 C 320.417969 88.496094 318.921875 87.007812 318.921875 85.164062 C 318.921875 87.007812 317.421875 88.496094 315.574219 88.496094 C 313.726562 88.496094 312.230469 87.007812 312.230469 85.164062 C 312.230469 87.007812 310.734375 88.496094 308.882812 88.496094 C 307.035156 88.496094 305.539062 87.007812 305.539062 85.164062 C 305.539062 87.007812 304.042969 88.496094 302.191406 88.496094 C 300.347656 88.496094 298.847656 87.007812 298.847656 85.164062 C 298.847656 86.621094 297.910156 87.855469 296.609375 88.308594 C 296.265625 88.429688 295.890625 88.496094 295.503906 88.496094 C 293.65625 88.496094 292.15625 87.007812 292.15625 85.164062 C 292.15625 83.328125 293.65625 81.832031 295.503906 81.832031 C 295.832031 81.832031 296.148438 81.882812 296.445312 81.96875 C 301.863281 71.410156 312.886719 64.183594 325.609375 64.183594 C 338.335938 64.183594 349.363281 71.410156 354.777344 81.96875 C 355.074219 81.882812 355.394531 81.832031 355.722656 81.832031 C 357.570312 81.832031 359.066406 83.328125 359.066406 85.164062 " fill-opacity="1" fill-rule="nonzero"/><path fill="#f6896b" d="M 355.722656 81.832031 C 355.394531 81.832031 355.074219 81.882812 354.777344 81.96875 C 349.363281 71.410156 338.335938 64.183594 325.609375 64.183594 C 324.417969 64.183594 323.242188 64.246094 322.082031 64.367188 C 333.296875 65.566406 342.8125 72.398438 347.722656 81.96875 C 348.019531 81.882812 348.335938 81.832031 348.664062 81.832031 C 350.511719 81.832031 352.007812 83.328125 352.007812 85.164062 C 352.007812 86.945312 350.609375 88.398438 348.847656 88.492188 C 348.90625 88.496094 348.96875 88.496094 349.03125 88.496094 C 350.878906 88.496094 352.375 87.003906 352.375 85.164062 C 352.375 86.621094 353.308594 87.855469 354.613281 88.308594 C 354.957031 88.429688 355.332031 88.496094 355.722656 88.496094 C 357.570312 88.496094 359.066406 87.003906 359.066406 85.164062 C 359.066406 83.328125 357.570312 81.832031 355.722656 81.832031 " fill-opacity="1" fill-rule="nonzero"/><g clip-path="url(#id1)"><path fill="#100f0d" d="M 355.777344 87.53125 C 355.507812 87.53125 355.246094 87.488281 354.992188 87.398438 C 354.042969 87.070312 353.40625 86.175781 353.40625 85.171875 C 353.40625 84.632812 352.96875 84.195312 352.425781 84.195312 C 351.882812 84.195312 351.445312 84.632812 351.445312 85.171875 C 351.445312 86.472656 350.378906 87.53125 349.074219 87.53125 C 347.765625 87.53125 346.703125 86.472656 346.703125 85.171875 C 346.703125 84.632812 346.265625 84.195312 345.722656 84.195312 C 345.179688 84.195312 344.738281 84.632812 344.738281 85.171875 C 344.738281 86.472656 343.675781 87.53125 342.371094 87.53125 C 341.066406 87.53125 340 86.472656 340 85.171875 C 340 84.632812 339.5625 84.195312 339.019531 84.195312 C 338.476562 84.195312 338.039062 84.632812 338.039062 85.171875 C 338.039062 86.472656 336.972656 87.53125 335.667969 87.53125 C 334.359375 87.53125 333.296875 86.472656 333.296875 85.171875 C 333.296875 84.632812 332.859375 84.195312 332.316406 84.195312 C 331.773438 84.195312 331.332031 84.632812 331.332031 85.171875 C 331.332031 86.472656 330.269531 87.53125 328.964844 87.53125 C 327.65625 87.53125 326.59375 86.472656 326.59375 85.171875 C 326.59375 84.632812 326.152344 84.195312 325.609375 84.195312 C 325.070312 84.195312 324.628906 84.632812 324.628906 85.171875 C 324.628906 86.472656 323.566406 87.53125 322.257812 87.53125 C 320.953125 87.53125 319.890625 86.472656 319.890625 85.171875 C 319.890625 84.632812 319.453125 84.195312 318.910156 84.195312 C 318.367188 84.195312 317.925781 84.632812 317.925781 85.171875 C 317.925781 86.472656 316.863281 87.53125 315.558594 87.53125 C 314.25 87.53125 313.1875 86.472656 313.1875 85.171875 C 313.1875 84.632812 312.746094 84.195312 312.203125 84.195312 C 311.664062 84.195312 311.222656 84.632812 311.222656 85.171875 C 311.222656 86.472656 310.160156 87.53125 308.851562 87.53125 C 307.546875 87.53125 306.484375 86.472656 306.484375 85.171875 C 306.484375 84.632812 306.042969 84.195312 305.5 84.195312 C 304.957031 84.195312 304.519531 84.632812 304.519531 85.171875 C 304.519531 86.472656 303.457031 87.53125 302.148438 87.53125 C 300.839844 87.53125 299.777344 86.472656 299.777344 85.171875 C 299.777344 84.632812 299.339844 84.195312 298.796875 84.195312 C 298.253906 84.195312 297.8125 84.632812 297.8125 85.171875 C 297.8125 86.175781 297.175781 87.070312 296.226562 87.402344 C 295.980469 87.488281 295.71875 87.53125 295.445312 87.53125 C 294.140625 87.53125 293.074219 86.472656 293.074219 85.171875 C 293.074219 83.871094 294.140625 82.8125 295.445312 82.8125 C 295.675781 82.8125 295.898438 82.84375 296.109375 82.90625 C 296.566406 83.042969 297.050781 82.835938 297.265625 82.414062 C 302.734375 71.75 313.597656 65.125 325.609375 65.125 C 337.628906 65.125 348.488281 71.75 353.957031 82.414062 C 354.175781 82.835938 354.660156 83.042969 355.113281 82.90625 C 355.324219 82.84375 355.550781 82.8125 355.777344 82.8125 C 357.085938 82.8125 358.148438 83.871094 358.148438 85.171875 C 358.148438 86.472656 357.085938 87.53125 355.777344 87.53125 Z M 349.960938 97.957031 L 301.261719 97.957031 L 297.785156 88.800781 C 298.171875 88.554688 298.511719 88.253906 298.796875 87.90625 C 299.59375 88.871094 300.800781 89.488281 302.148438 89.488281 C 303.496094 89.488281 304.707031 88.871094 305.5 87.90625 C 306.296875 88.871094 307.503906 89.488281 308.851562 89.488281 C 310.203125 89.488281 311.410156 88.871094 312.203125 87.90625 C 313 88.871094 314.207031 89.488281 315.558594 89.488281 C 316.90625 89.488281 318.113281 88.871094 318.910156 87.90625 C 319.703125 88.871094 320.910156 89.488281 322.257812 89.488281 C 323.609375 89.488281 324.816406 88.871094 325.609375 87.90625 C 326.40625 88.871094 327.613281 89.488281 328.964844 89.488281 C 330.3125 89.488281 331.519531 88.871094 332.316406 87.90625 C 333.109375 88.871094 334.316406 89.488281 335.667969 89.488281 C 337.015625 89.488281 338.222656 88.871094 339.019531 87.90625 C 339.816406 88.871094 341.023438 89.488281 342.371094 89.488281 C 343.71875 89.488281 344.925781 88.871094 345.722656 87.90625 C 346.515625 88.871094 347.726562 89.488281 349.074219 89.488281 C 350.421875 89.488281 351.628906 88.871094 352.425781 87.90625 C 352.710938 88.253906 353.050781 88.558594 353.433594 88.800781 Z M 355.777344 80.855469 C 355.640625 80.855469 355.5 80.863281 355.367188 80.875 C 352.578125 75.722656 348.484375 71.371094 343.488281 68.261719 C 338.136719 64.933594 331.953125 63.171875 325.609375 63.171875 C 319.269531 63.171875 313.085938 64.933594 307.734375 68.261719 C 302.738281 71.371094 298.644531 75.722656 295.859375 80.875 C 295.722656 80.863281 295.585938 80.855469 295.445312 80.855469 C 293.054688 80.855469 291.113281 82.792969 291.113281 85.171875 C 291.113281 87.550781 293.054688 89.488281 295.445312 89.488281 C 295.609375 89.488281 295.773438 89.476562 295.9375 89.460938 L 299.664062 99.28125 C 299.808594 99.660156 300.175781 99.914062 300.585938 99.914062 L 350.636719 99.914062 C 351.046875 99.914062 351.414062 99.660156 351.554688 99.28125 L 355.285156 89.460938 C 355.449219 89.476562 355.613281 89.488281 355.777344 89.488281 C 358.167969 89.488281 360.113281 87.550781 360.113281 85.171875 C 360.113281 82.792969 358.167969 80.855469 355.777344 80.855469 " fill-opacity="1" fill-rule="nonzero"/></g><path fill="#100f0d" d="M 334.375 70.164062 C 333.992188 69.785156 333.371094 69.785156 332.984375 70.164062 C 332.601562 70.546875 332.601562 71.164062 332.984375 71.546875 L 334.363281 72.917969 C 334.554688 73.109375 334.804688 73.203125 335.054688 73.203125 C 335.308594 73.203125 335.558594 73.109375 335.75 72.917969 C 336.132812 72.535156 336.132812 71.917969 335.75 71.535156 L 334.375 70.164062 " fill-opacity="1" fill-rule="nonzero"/><path fill="#100f0d" d="M 325.609375 69.59375 C 325.070312 69.59375 324.628906 70.03125 324.628906 70.574219 L 324.628906 72.511719 C 324.628906 73.050781 325.070312 73.488281 325.609375 73.488281 C 326.152344 73.488281 326.59375 73.050781 326.59375 72.511719 L 326.59375 70.574219 C 326.59375 70.03125 326.152344 69.59375 325.609375 69.59375 " fill-opacity="1" fill-rule="nonzero"/><path fill="#100f0d" d="M 316.847656 70.164062 L 315.472656 71.535156 C 315.089844 71.917969 315.089844 72.535156 315.472656 72.917969 C 315.664062 73.109375 315.914062 73.203125 316.167969 73.203125 C 316.417969 73.203125 316.667969 73.109375 316.859375 72.917969 L 318.238281 71.546875 C 318.621094 71.164062 318.621094 70.546875 318.238281 70.164062 C 317.855469 69.785156 317.230469 69.785156 316.847656 70.164062 " fill-opacity="1" fill-rule="nonzero"/><g fill="#000000" fill-opacity="1"><g transform="translate(15.000002, 95.320784)"><g><path d="M 19.6875 -31 C 22.414062 -31 24.488281 -30.410156 25.90625 -29.234375 C 27.332031 -28.066406 28.3125 -26.503906 28.84375 -24.546875 C 29.375 -22.597656 29.640625 -20.425781 29.640625 -18.03125 L 29.640625 -3.46875 C 29.640625 -2.476562 29.316406 -1.648438 28.671875 -0.984375 C 28.023438 -0.328125 27.210938 0 26.234375 0 C 25.242188 0 24.425781 -0.328125 23.78125 -0.984375 C 23.132812 -1.648438 22.8125 -2.476562 22.8125 -3.46875 L 22.8125 -18.03125 C 22.8125 -19.28125 22.660156 -20.40625 22.359375 -21.40625 C 22.054688 -22.414062 21.503906 -23.222656 20.703125 -23.828125 C 19.910156 -24.441406 18.773438 -24.75 17.296875 -24.75 C 15.859375 -24.75 14.625 -24.441406 13.59375 -23.828125 C 12.570312 -23.222656 11.804688 -22.414062 11.296875 -21.40625 C 10.785156 -20.40625 10.53125 -19.28125 10.53125 -18.03125 L 10.53125 -3.46875 C 10.53125 -2.476562 10.207031 -1.648438 9.5625 -0.984375 C 8.914062 -0.328125 8.097656 0 7.109375 0 C 6.117188 0 5.300781 -0.328125 4.65625 -0.984375 C 4.019531 -1.648438 3.703125 -2.476562 3.703125 -3.46875 L 3.703125 -38.625 C 3.703125 -39.613281 4.019531 -40.4375 4.65625 -41.09375 C 5.300781 -41.757812 6.117188 -42.09375 7.109375 -42.09375 C 8.097656 -42.09375 8.914062 -41.757812 9.5625 -41.09375 C 10.207031 -40.4375 10.53125 -39.613281 10.53125 -38.625 L 10.53125 -24.515625 L 9.671875 -24.6875 C 10.015625 -25.332031 10.488281 -26.023438 11.09375 -26.765625 C 11.695312 -27.503906 12.4375 -28.195312 13.3125 -28.84375 C 14.1875 -29.488281 15.15625 -30.007812 16.21875 -30.40625 C 17.28125 -30.800781 18.4375 -31 19.6875 -31 Z M 19.6875 -31 "/></g></g></g><g fill="#000000" fill-opacity="1"><g transform="translate(48.34239, 95.320784)"><g><path d="M 26.28125 -30.4375 C 27.269531 -30.4375 28.085938 -30.101562 28.734375 -29.4375 C 29.378906 -28.78125 29.703125 -27.957031 29.703125 -26.96875 L 29.703125 -12.515625 C 29.703125 -8.492188 28.582031 -5.304688 26.34375 -2.953125 C 24.101562 -0.609375 20.878906 0.5625 16.671875 0.5625 C 12.460938 0.5625 9.25 -0.609375 7.03125 -2.953125 C 4.8125 -5.304688 3.703125 -8.492188 3.703125 -12.515625 L 3.703125 -26.96875 C 3.703125 -27.957031 4.019531 -28.78125 4.65625 -29.4375 C 5.300781 -30.101562 6.117188 -30.4375 7.109375 -30.4375 C 8.097656 -30.4375 8.914062 -30.101562 9.5625 -29.4375 C 10.207031 -28.78125 10.53125 -27.957031 10.53125 -26.96875 L 10.53125 -12.515625 C 10.53125 -10.203125 11.039062 -8.484375 12.0625 -7.359375 C 13.082031 -6.242188 14.617188 -5.6875 16.671875 -5.6875 C 18.753906 -5.6875 20.304688 -6.242188 21.328125 -7.359375 C 22.359375 -8.484375 22.875 -10.203125 22.875 -12.515625 L 22.875 -26.96875 C 22.875 -27.957031 23.191406 -28.78125 23.828125 -29.4375 C 24.472656 -30.101562 25.289062 -30.4375 26.28125 -30.4375 Z M 26.28125 -30.4375 "/></g></g></g><g fill="#000000" fill-opacity="1"><g transform="translate(81.741685, 95.320784)"><g><path d="M 19.6875 -31 C 22.71875 -31 24.953125 -30.269531 26.390625 -28.8125 C 27.835938 -27.351562 28.785156 -25.46875 29.234375 -23.15625 L 28.28125 -23.671875 L 28.734375 -24.578125 C 29.179688 -25.453125 29.878906 -26.390625 30.828125 -27.390625 C 31.773438 -28.398438 32.921875 -29.253906 34.265625 -29.953125 C 35.617188 -30.648438 37.128906 -31 38.796875 -31 C 41.523438 -31 43.597656 -30.410156 45.015625 -29.234375 C 46.441406 -28.066406 47.421875 -26.503906 47.953125 -24.546875 C 48.484375 -22.597656 48.75 -20.425781 48.75 -18.03125 L 48.75 -3.46875 C 48.75 -2.476562 48.425781 -1.648438 47.78125 -0.984375 C 47.144531 -0.328125 46.332031 0 45.34375 0 C 44.351562 0 43.535156 -0.328125 42.890625 -0.984375 C 42.242188 -1.648438 41.921875 -2.476562 41.921875 -3.46875 L 41.921875 -18.03125 C 41.921875 -19.28125 41.769531 -20.40625 41.46875 -21.40625 C 41.164062 -22.414062 40.613281 -23.222656 39.8125 -23.828125 C 39.019531 -24.441406 37.882812 -24.75 36.40625 -24.75 C 34.96875 -24.75 33.734375 -24.441406 32.703125 -23.828125 C 31.679688 -23.222656 30.914062 -22.414062 30.40625 -21.40625 C 29.894531 -20.40625 29.640625 -19.28125 29.640625 -18.03125 L 29.640625 -3.46875 C 29.640625 -2.476562 29.316406 -1.648438 28.671875 -0.984375 C 28.023438 -0.328125 27.210938 0 26.234375 0 C 25.242188 0 24.425781 -0.328125 23.78125 -0.984375 C 23.132812 -1.648438 22.8125 -2.476562 22.8125 -3.46875 L 22.8125 -18.03125 C 22.8125 -19.28125 22.660156 -20.40625 22.359375 -21.40625 C 22.054688 -22.414062 21.503906 -23.222656 20.703125 -23.828125 C 19.910156 -24.441406 18.773438 -24.75 17.296875 -24.75 C 15.859375 -24.75 14.625 -24.441406 13.59375 -23.828125 C 12.570312 -23.222656 11.804688 -22.414062 11.296875 -21.40625 C 10.785156 -20.40625 10.53125 -19.28125 10.53125 -18.03125 L 10.53125 -3.46875 C 10.53125 -2.476562 10.207031 -1.648438 9.5625 -0.984375 C 8.914062 -0.328125 8.097656 0 7.109375 0 C 6.117188 0 5.300781 -0.328125 4.65625 -0.984375 C 4.019531 -1.648438 3.703125 -2.476562 3.703125 -3.46875 L 3.703125 -26.96875 C 3.703125 -27.957031 4.019531 -28.78125 4.65625 -29.4375 C 5.300781 -30.101562 6.117188 -30.4375 7.109375 -30.4375 C 8.097656 -30.4375 8.914062 -30.101562 9.5625 -29.4375 C 10.207031 -28.78125 10.53125 -27.957031 10.53125 -26.96875 L 10.53125 -24.515625 L 9.671875 -24.6875 C 10.015625 -25.332031 10.488281 -26.023438 11.09375 -26.765625 C 11.695312 -27.503906 12.4375 -28.195312 13.3125 -28.84375 C 14.1875 -29.488281 15.15625 -30.007812 16.21875 -30.40625 C 17.28125 -30.800781 18.4375 -31 19.6875 -31 Z M 19.6875 -31 "/></g></g></g><g fill="#000000" fill-opacity="1"><g transform="translate(134.201889, 95.320784)"><g><path d="M 19.453125 -31 C 22.109375 -31 24.488281 -30.328125 26.59375 -28.984375 C 28.695312 -27.640625 30.363281 -25.789062 31.59375 -23.4375 C 32.832031 -21.082031 33.453125 -18.351562 33.453125 -15.25 C 33.453125 -12.132812 32.832031 -9.390625 31.59375 -7.015625 C 30.363281 -4.648438 28.710938 -2.796875 26.640625 -1.453125 C 24.578125 -0.109375 22.257812 0.5625 19.6875 0.5625 C 18.164062 0.5625 16.738281 0.316406 15.40625 -0.171875 C 14.082031 -0.660156 12.914062 -1.285156 11.90625 -2.046875 C 10.90625 -2.804688 10.128906 -3.570312 9.578125 -4.34375 C 9.035156 -5.125 8.765625 -5.78125 8.765625 -6.3125 L 10.53125 -7.046875 L 10.53125 -2.90625 C 10.53125 -1.914062 10.207031 -1.085938 9.5625 -0.421875 C 8.914062 0.234375 8.097656 0.5625 7.109375 0.5625 C 6.117188 0.5625 5.300781 0.242188 4.65625 -0.390625 C 4.019531 -1.035156 3.703125 -1.875 3.703125 -2.90625 L 3.703125 -38.625 C 3.703125 -39.613281 4.019531 -40.4375 4.65625 -41.09375 C 5.300781 -41.757812 6.117188 -42.09375 7.109375 -42.09375 C 8.097656 -42.09375 8.914062 -41.757812 9.5625 -41.09375 C 10.207031 -40.4375 10.53125 -39.613281 10.53125 -38.625 L 10.53125 -24.171875 L 9.5625 -24.6875 C 9.5625 -25.1875 9.828125 -25.785156 10.359375 -26.484375 C 10.890625 -27.179688 11.609375 -27.878906 12.515625 -28.578125 C 13.421875 -29.285156 14.472656 -29.863281 15.671875 -30.3125 C 16.867188 -30.769531 18.128906 -31 19.453125 -31 Z M 18.609375 -24.75 C 16.929688 -24.75 15.46875 -24.332031 14.21875 -23.5 C 12.96875 -22.664062 11.988281 -21.535156 11.28125 -20.109375 C 10.582031 -18.691406 10.234375 -17.070312 10.234375 -15.25 C 10.234375 -13.46875 10.582031 -11.84375 11.28125 -10.375 C 11.988281 -8.914062 12.96875 -7.769531 14.21875 -6.9375 C 15.46875 -6.101562 16.929688 -5.6875 18.609375 -5.6875 C 20.273438 -5.6875 21.722656 -6.101562 22.953125 -6.9375 C 24.179688 -7.769531 25.144531 -8.914062 25.84375 -10.375 C 26.550781 -11.84375 26.90625 -13.46875 26.90625 -15.25 C 26.90625 -17.070312 26.550781 -18.691406 25.84375 -20.109375 C 25.144531 -21.535156 24.179688 -22.664062 22.953125 -23.5 C 21.722656 -24.332031 20.273438 -24.75 18.609375 -24.75 Z M 18.609375 -24.75 "/></g></g></g><g fill="#000000" fill-opacity="1"><g transform="translate(169.649511, 95.320784)"><g><path d="M 11.09375 -3.46875 C 11.09375 -2.476562 10.757812 -1.648438 10.09375 -0.984375 C 9.4375 -0.328125 8.613281 0 7.625 0 C 6.675781 0 5.878906 -0.328125 5.234375 -0.984375 C 4.585938 -1.648438 4.265625 -2.476562 4.265625 -3.46875 L 4.265625 -38.625 C 4.265625 -39.613281 4.597656 -40.4375 5.265625 -41.09375 C 5.929688 -41.757812 6.753906 -42.09375 7.734375 -42.09375 C 8.722656 -42.09375 9.53125 -41.757812 10.15625 -41.09375 C 10.78125 -40.4375 11.09375 -39.613281 11.09375 -38.625 Z M 11.09375 -3.46875 "/></g></g></g><g fill="#000000" fill-opacity="1"><g transform="translate(185.012041, 95.320784)"><g><path d="M 17.75 0.5625 C 14.53125 0.5625 11.734375 -0.109375 9.359375 -1.453125 C 6.984375 -2.796875 5.160156 -4.625 3.890625 -6.9375 C 2.617188 -9.25 1.984375 -11.867188 1.984375 -14.796875 C 1.984375 -18.203125 2.675781 -21.109375 4.0625 -23.515625 C 5.445312 -25.929688 7.257812 -27.78125 9.5 -29.0625 C 11.738281 -30.351562 14.109375 -31 16.609375 -31 C 18.546875 -31 20.375 -30.597656 22.09375 -29.796875 C 23.820312 -29.003906 25.347656 -27.914062 26.671875 -26.53125 C 28.003906 -25.15625 29.054688 -23.554688 29.828125 -21.734375 C 30.609375 -19.910156 31 -17.972656 31 -15.921875 C 30.96875 -15.015625 30.609375 -14.273438 29.921875 -13.703125 C 29.242188 -13.140625 28.445312 -12.859375 27.53125 -12.859375 L 5.796875 -12.859375 L 4.09375 -18.546875 L 24.96875 -18.546875 L 23.71875 -17.40625 L 23.71875 -18.9375 C 23.644531 -20.039062 23.253906 -21.03125 22.546875 -21.90625 C 21.847656 -22.78125 20.976562 -23.472656 19.9375 -23.984375 C 18.894531 -24.492188 17.785156 -24.75 16.609375 -24.75 C 15.472656 -24.75 14.410156 -24.597656 13.421875 -24.296875 C 12.441406 -23.992188 11.585938 -23.476562 10.859375 -22.75 C 10.140625 -22.03125 9.570312 -21.0625 9.15625 -19.84375 C 8.738281 -18.632812 8.53125 -17.101562 8.53125 -15.25 C 8.53125 -13.195312 8.957031 -11.457031 9.8125 -10.03125 C 10.664062 -8.613281 11.765625 -7.535156 13.109375 -6.796875 C 14.460938 -6.054688 15.894531 -5.6875 17.40625 -5.6875 C 18.8125 -5.6875 19.929688 -5.800781 20.765625 -6.03125 C 21.597656 -6.257812 22.269531 -6.535156 22.78125 -6.859375 C 23.289062 -7.179688 23.753906 -7.457031 24.171875 -7.6875 C 24.859375 -8.019531 25.503906 -8.1875 26.109375 -8.1875 C 26.941406 -8.1875 27.632812 -7.898438 28.1875 -7.328125 C 28.738281 -6.765625 29.015625 -6.101562 29.015625 -5.34375 C 29.015625 -4.320312 28.484375 -3.394531 27.421875 -2.5625 C 26.429688 -1.726562 25.046875 -1 23.265625 -0.375 C 21.484375 0.25 19.644531 0.5625 17.75 0.5625 Z M 17.75 0.5625 "/></g></g></g><g fill="#000000" fill-opacity="1"><g transform="translate(218.013041, 95.320784)"><g><path d="M 19.453125 -31 C 22.109375 -31 24.488281 -30.328125 26.59375 -28.984375 C 28.695312 -27.640625 30.363281 -25.789062 31.59375 -23.4375 C 32.832031 -21.082031 33.453125 -18.351562 33.453125 -15.25 C 33.453125 -12.132812 32.832031 -9.390625 31.59375 -7.015625 C 30.363281 -4.648438 28.710938 -2.796875 26.640625 -1.453125 C 24.578125 -0.109375 22.257812 0.5625 19.6875 0.5625 C 18.164062 0.5625 16.738281 0.316406 15.40625 -0.171875 C 14.082031 -0.660156 12.914062 -1.285156 11.90625 -2.046875 C 10.90625 -2.804688 10.128906 -3.570312 9.578125 -4.34375 C 9.035156 -5.125 8.765625 -5.78125 8.765625 -6.3125 L 10.53125 -7.046875 L 10.53125 7.90625 C 10.53125 8.894531 10.207031 9.71875 9.5625 10.375 C 8.914062 11.039062 8.097656 11.375 7.109375 11.375 C 6.117188 11.375 5.300781 11.050781 4.65625 10.40625 C 4.019531 9.757812 3.703125 8.925781 3.703125 7.90625 L 3.703125 -26.96875 C 3.703125 -27.957031 4.019531 -28.78125 4.65625 -29.4375 C 5.300781 -30.101562 6.117188 -30.4375 7.109375 -30.4375 C 8.097656 -30.4375 8.914062 -30.101562 9.5625 -29.4375 C 10.207031 -28.78125 10.53125 -27.957031 10.53125 -26.96875 L 10.53125 -24.171875 L 9.5625 -24.6875 C 9.5625 -25.1875 9.828125 -25.785156 10.359375 -26.484375 C 10.890625 -27.179688 11.609375 -27.878906 12.515625 -28.578125 C 13.421875 -29.285156 14.472656 -29.863281 15.671875 -30.3125 C 16.867188 -30.769531 18.128906 -31 19.453125 -31 Z M 18.609375 -24.75 C 16.929688 -24.75 15.46875 -24.332031 14.21875 -23.5 C 12.96875 -22.664062 11.988281 -21.535156 11.28125 -20.109375 C 10.582031 -18.691406 10.234375 -17.070312 10.234375 -15.25 C 10.234375 -13.46875 10.582031 -11.84375 11.28125 -10.375 C 11.988281 -8.914062 12.96875 -7.769531 14.21875 -6.9375 C 15.46875 -6.101562 16.929688 -5.6875 18.609375 -5.6875 C 20.273438 -5.6875 21.722656 -6.101562 22.953125 -6.9375 C 24.179688 -7.769531 25.144531 -8.914062 25.84375 -10.375 C 26.550781 -11.84375 26.90625 -13.46875 26.90625 -15.25 C 26.90625 -17.070312 26.550781 -18.691406 25.84375 -20.109375 C 25.144531 -21.535156 24.179688 -22.664062 22.953125 -23.5 C 21.722656 -24.332031 20.273438 -24.75 18.609375 -24.75 Z M 18.609375 -24.75 "/></g></g></g><g fill="#000000" fill-opacity="1"><g transform="translate(253.460663, 95.320784)"><g><path d="M 26.28125 -30.4375 C 27.269531 -30.4375 28.085938 -30.101562 28.734375 -29.4375 C 29.378906 -28.78125 29.703125 -27.957031 29.703125 -26.96875 L 29.703125 -2.78125 C 29.703125 0.707031 29.046875 3.484375 27.734375 5.546875 C 26.421875 7.609375 24.664062 9.09375 22.46875 10 C 20.269531 10.914062 17.804688 11.375 15.078125 11.375 C 13.859375 11.375 12.566406 11.28125 11.203125 11.09375 C 9.835938 10.90625 8.71875 10.617188 7.84375 10.234375 C 6.707031 9.742188 5.921875 9.128906 5.484375 8.390625 C 5.046875 7.648438 4.960938 6.863281 5.234375 6.03125 C 5.578125 4.925781 6.125 4.175781 6.875 3.78125 C 7.632812 3.382812 8.429688 3.335938 9.265625 3.640625 C 9.878906 3.828125 10.675781 4.117188 11.65625 4.515625 C 12.644531 4.921875 13.785156 5.125 15.078125 5.125 C 16.816406 5.125 18.265625 4.882812 19.421875 4.40625 C 20.578125 3.9375 21.445312 3.140625 22.03125 2.015625 C 22.625 0.898438 22.921875 -0.625 22.921875 -2.5625 L 22.921875 -6.375 L 24.125 -5 C 23.476562 -3.75 22.671875 -2.71875 21.703125 -1.90625 C 20.734375 -1.09375 19.582031 -0.476562 18.25 -0.0625 C 16.925781 0.351562 15.410156 0.5625 13.703125 0.5625 C 11.703125 0.5625 9.953125 0.0976562 8.453125 -0.828125 C 6.953125 -1.753906 5.785156 -3.039062 4.953125 -4.6875 C 4.117188 -6.34375 3.703125 -8.234375 3.703125 -10.359375 L 3.703125 -26.96875 C 3.703125 -27.957031 4.019531 -28.78125 4.65625 -29.4375 C 5.300781 -30.101562 6.117188 -30.4375 7.109375 -30.4375 C 8.097656 -30.4375 8.914062 -30.101562 9.5625 -29.4375 C 10.207031 -28.78125 10.53125 -27.957031 10.53125 -26.96875 L 10.53125 -12.40625 C 10.53125 -9.9375 11.066406 -8.195312 12.140625 -7.1875 C 13.222656 -6.1875 14.734375 -5.6875 16.671875 -5.6875 C 17.992188 -5.6875 19.109375 -5.941406 20.015625 -6.453125 C 20.929688 -6.960938 21.632812 -7.71875 22.125 -8.71875 C 22.625 -9.726562 22.875 -10.957031 22.875 -12.40625 L 22.875 -26.96875 C 22.875 -27.957031 23.191406 -28.78125 23.828125 -29.4375 C 24.472656 -30.101562 25.289062 -30.4375 26.28125 -30.4375 Z M 26.28125 -30.4375 "/></g></g></g></svg>